<mxfile host="app.diagrams.net" agent="Mozilla/5.0 (Windows NT 10.0; Win64; x64) AppleWebKit/537.36 (KHTML, like Gecko) Chrome/132.0.0.0 Safari/537.36" version="27.0.6">
  <diagram name="PÃ¡gina-1" id="35nv4Df5VCAe-OWDI7PA">
    <mxGraphModel dx="2492" dy="751" grid="1" gridSize="10" guides="1" tooltips="1" connect="1" arrows="1" fold="1" page="1" pageScale="1" pageWidth="827" pageHeight="1169" math="0" shadow="0">
      <root>
        <mxCell id="0" />
        <mxCell id="1" parent="0" />
        <mxCell id="SmEad3TpiuR0r6Jm9m0o-1" value="" style="shape=folder;fontStyle=1;spacingTop=10;tabWidth=40;tabHeight=14;tabPosition=left;html=1;whiteSpace=wrap;" vertex="1" parent="1">
          <mxGeometry x="-40" y="10" width="1220" height="530" as="geometry" />
        </mxCell>
        <mxCell id="SmEad3TpiuR0r6Jm9m0o-2" value="&lt;div&gt;&amp;lt;&amp;lt;Core Banking&amp;gt;&amp;gt;&lt;/div&gt;AS-400" style="html=1;dropTarget=0;whiteSpace=wrap;" vertex="1" parent="1">
          <mxGeometry x="530" y="195.5" width="180" height="90" as="geometry" />
        </mxCell>
        <mxCell id="SmEad3TpiuR0r6Jm9m0o-3" value="" style="shape=module;jettyWidth=8;jettyHeight=4;" vertex="1" parent="SmEad3TpiuR0r6Jm9m0o-2">
          <mxGeometry x="1" width="20" height="20" relative="1" as="geometry">
            <mxPoint x="-27" y="7" as="offset" />
          </mxGeometry>
        </mxCell>
        <mxCell id="SmEad3TpiuR0r6Jm9m0o-52" style="edgeStyle=orthogonalEdgeStyle;rounded=0;orthogonalLoop=1;jettySize=auto;html=1;" edge="1" parent="1" source="SmEad3TpiuR0r6Jm9m0o-4" target="SmEad3TpiuR0r6Jm9m0o-43">
          <mxGeometry relative="1" as="geometry">
            <Array as="points">
              <mxPoint x="310" y="160" />
              <mxPoint x="490" y="160" />
            </Array>
          </mxGeometry>
        </mxCell>
        <mxCell id="SmEad3TpiuR0r6Jm9m0o-57" style="edgeStyle=orthogonalEdgeStyle;rounded=0;orthogonalLoop=1;jettySize=auto;html=1;entryX=1;entryY=0.5;entryDx=0;entryDy=0;" edge="1" parent="1" source="SmEad3TpiuR0r6Jm9m0o-4" target="SmEad3TpiuR0r6Jm9m0o-53">
          <mxGeometry relative="1" as="geometry" />
        </mxCell>
        <mxCell id="SmEad3TpiuR0r6Jm9m0o-4" value="EIBS" style="html=1;dropTarget=0;whiteSpace=wrap;" vertex="1" parent="1">
          <mxGeometry x="220" y="195.5" width="180" height="90" as="geometry" />
        </mxCell>
        <mxCell id="SmEad3TpiuR0r6Jm9m0o-5" value="" style="shape=module;jettyWidth=8;jettyHeight=4;" vertex="1" parent="SmEad3TpiuR0r6Jm9m0o-4">
          <mxGeometry x="1" width="20" height="20" relative="1" as="geometry">
            <mxPoint x="-27" y="7" as="offset" />
          </mxGeometry>
        </mxCell>
        <mxCell id="SmEad3TpiuR0r6Jm9m0o-6" style="edgeStyle=orthogonalEdgeStyle;rounded=0;orthogonalLoop=1;jettySize=auto;html=1;entryX=0;entryY=0.5;entryDx=0;entryDy=0;" edge="1" parent="1" target="SmEad3TpiuR0r6Jm9m0o-2">
          <mxGeometry relative="1" as="geometry">
            <mxPoint x="450" y="240.5" as="sourcePoint" />
          </mxGeometry>
        </mxCell>
        <mxCell id="SmEad3TpiuR0r6Jm9m0o-7" value="" style="shape=providedRequiredInterface;html=1;verticalLabelPosition=bottom;sketch=0;" vertex="1" parent="1">
          <mxGeometry x="430" y="230.5" width="20" height="20" as="geometry" />
        </mxCell>
        <mxCell id="SmEad3TpiuR0r6Jm9m0o-8" value="" style="endArrow=none;html=1;rounded=0;entryX=0.556;entryY=0.521;entryDx=0;entryDy=0;entryPerimeter=0;" edge="1" parent="1">
          <mxGeometry width="50" height="50" relative="1" as="geometry">
            <mxPoint x="396" y="241.15999999999997" as="sourcePoint" />
            <mxPoint x="430.3600000000001" y="240.99699999999996" as="targetPoint" />
          </mxGeometry>
        </mxCell>
        <mxCell id="SmEad3TpiuR0r6Jm9m0o-9" value="Angular" style="html=1;dropTarget=0;whiteSpace=wrap;" vertex="1" parent="1">
          <mxGeometry x="210" y="408.5" width="180" height="90" as="geometry" />
        </mxCell>
        <mxCell id="SmEad3TpiuR0r6Jm9m0o-10" value="" style="shape=module;jettyWidth=8;jettyHeight=4;" vertex="1" parent="SmEad3TpiuR0r6Jm9m0o-9">
          <mxGeometry x="1" width="20" height="20" relative="1" as="geometry">
            <mxPoint x="-27" y="7" as="offset" />
          </mxGeometry>
        </mxCell>
        <mxCell id="SmEad3TpiuR0r6Jm9m0o-11" value="" style="shape=providedRequiredInterface;html=1;verticalLabelPosition=bottom;sketch=0;rotation=90;" vertex="1" parent="1">
          <mxGeometry x="280" y="308.5" width="20" height="20" as="geometry" />
        </mxCell>
        <mxCell id="SmEad3TpiuR0r6Jm9m0o-12" value="" style="endArrow=none;html=1;rounded=0;exitX=0;exitY=0.5;exitDx=0;exitDy=0;exitPerimeter=0;entryX=0.411;entryY=0.975;entryDx=0;entryDy=0;entryPerimeter=0;" edge="1" parent="1" source="SmEad3TpiuR0r6Jm9m0o-11" target="SmEad3TpiuR0r6Jm9m0o-4">
          <mxGeometry width="50" height="50" relative="1" as="geometry">
            <mxPoint x="-11" y="380.15999999999997" as="sourcePoint" />
            <mxPoint x="580" y="285.5" as="targetPoint" />
          </mxGeometry>
        </mxCell>
        <mxCell id="SmEad3TpiuR0r6Jm9m0o-13" style="edgeStyle=orthogonalEdgeStyle;rounded=0;orthogonalLoop=1;jettySize=auto;html=1;exitX=1;exitY=0.5;exitDx=0;exitDy=0;exitPerimeter=0;" edge="1" parent="1" source="SmEad3TpiuR0r6Jm9m0o-11">
          <mxGeometry relative="1" as="geometry">
            <mxPoint x="428" y="352.5" as="sourcePoint" />
            <mxPoint x="290" y="408.5" as="targetPoint" />
            <Array as="points">
              <mxPoint x="290" y="408.5" />
            </Array>
          </mxGeometry>
        </mxCell>
        <mxCell id="SmEad3TpiuR0r6Jm9m0o-14" value="&lt;b&gt;GIBS&lt;/b&gt;" style="text;html=1;align=center;verticalAlign=middle;whiteSpace=wrap;rounded=0;" vertex="1" parent="1">
          <mxGeometry y="30" width="130" height="30" as="geometry" />
        </mxCell>
        <mxCell id="SmEad3TpiuR0r6Jm9m0o-15" value="Angular" style="html=1;dropTarget=0;whiteSpace=wrap;" vertex="1" parent="1">
          <mxGeometry x="407" y="408.5" width="216" height="88.5" as="geometry" />
        </mxCell>
        <mxCell id="SmEad3TpiuR0r6Jm9m0o-16" value="" style="shape=module;jettyWidth=8;jettyHeight=4;" vertex="1" parent="SmEad3TpiuR0r6Jm9m0o-15">
          <mxGeometry x="1" width="20" height="20" relative="1" as="geometry">
            <mxPoint x="-27" y="7" as="offset" />
          </mxGeometry>
        </mxCell>
        <mxCell id="SmEad3TpiuR0r6Jm9m0o-18" style="edgeStyle=orthogonalEdgeStyle;rounded=0;orthogonalLoop=1;jettySize=auto;html=1;exitX=1;exitY=0.5;exitDx=0;exitDy=0;exitPerimeter=0;entryX=0.5;entryY=0;entryDx=0;entryDy=0;" edge="1" parent="1" source="SmEad3TpiuR0r6Jm9m0o-17" target="SmEad3TpiuR0r6Jm9m0o-15">
          <mxGeometry relative="1" as="geometry">
            <mxPoint x="762" y="342.5" as="sourcePoint" />
            <mxPoint x="624" y="398.5" as="targetPoint" />
            <Array as="points">
              <mxPoint x="520" y="319" />
              <mxPoint x="520" y="364" />
              <mxPoint x="515" y="364" />
            </Array>
          </mxGeometry>
        </mxCell>
        <mxCell id="SmEad3TpiuR0r6Jm9m0o-19" value="" style="endArrow=none;html=1;rounded=0;entryX=0.5;entryY=1;entryDx=0;entryDy=0;" edge="1" parent="1" source="SmEad3TpiuR0r6Jm9m0o-17" target="SmEad3TpiuR0r6Jm9m0o-4">
          <mxGeometry width="50" height="50" relative="1" as="geometry">
            <mxPoint x="620" y="308.5" as="sourcePoint" />
            <mxPoint x="316" y="288.5" as="targetPoint" />
            <Array as="points">
              <mxPoint x="310" y="310" />
            </Array>
          </mxGeometry>
        </mxCell>
        <mxCell id="SmEad3TpiuR0r6Jm9m0o-20" value="&lt;span style=&quot;color: rgb(0, 0, 0); font-family: Verdana; font-size: 12px; font-style: normal; font-variant-ligatures: normal; font-variant-caps: normal; font-weight: 400; letter-spacing: normal; orphans: 2; text-align: center; text-indent: 0px; text-transform: none; widows: 2; word-spacing: 0px; -webkit-text-stroke-width: 0px; white-space: nowrap; background-color: rgb(251, 251, 251); text-decoration-thickness: initial; text-decoration-style: initial; text-decoration-color: initial; display: inline !important; float: none;&quot;&gt;&amp;lt;&amp;lt;Credit Platform&amp;gt;&amp;gt;&lt;/span&gt;" style="text;whiteSpace=wrap;html=1;" vertex="1" parent="1">
          <mxGeometry x="226" y="205.5" width="100" height="25" as="geometry" />
        </mxCell>
        <mxCell id="SmEad3TpiuR0r6Jm9m0o-21" value="&lt;span style=&quot;color: rgb(0, 0, 0); font-family: Verdana; font-size: 12px; font-style: normal; font-variant-ligatures: normal; font-variant-caps: normal; font-weight: 400; letter-spacing: normal; orphans: 2; text-align: center; text-indent: 0px; text-transform: none; widows: 2; word-spacing: 0px; -webkit-text-stroke-width: 0px; white-space: nowrap; background-color: rgb(251, 251, 251); text-decoration-thickness: initial; text-decoration-style: initial; text-decoration-color: initial; float: none; display: inline !important;&quot;&gt;&amp;lt;&amp;lt;Sistema-Nacional-Pagos&amp;gt;&amp;gt;&lt;/span&gt;" style="text;whiteSpace=wrap;html=1;" vertex="1" parent="1">
          <mxGeometry x="414" y="418.5" width="100" height="25" as="geometry" />
        </mxCell>
        <mxCell id="SmEad3TpiuR0r6Jm9m0o-22" value="&lt;span style=&quot;color: rgb(0, 0, 0); font-family: Verdana; font-size: 12px; font-style: normal; font-variant-ligatures: normal; font-variant-caps: normal; font-weight: 400; letter-spacing: normal; orphans: 2; text-align: center; text-indent: 0px; text-transform: none; widows: 2; word-spacing: 0px; -webkit-text-stroke-width: 0px; white-space: nowrap; background-color: rgb(251, 251, 251); text-decoration-thickness: initial; text-decoration-style: initial; text-decoration-color: initial; float: none; display: inline !important;&quot;&gt;&amp;lt;&amp;lt;Legacy grÃ¡fico&amp;gt;&amp;gt;&lt;/span&gt;" style="text;whiteSpace=wrap;html=1;" vertex="1" parent="1">
          <mxGeometry x="220" y="418.5" width="100" height="25" as="geometry" />
        </mxCell>
        <mxCell id="SmEad3TpiuR0r6Jm9m0o-17" value="" style="shape=providedRequiredInterface;html=1;verticalLabelPosition=bottom;sketch=0;rotation=90;" vertex="1" parent="1">
          <mxGeometry x="505" y="298.5" width="20" height="20" as="geometry" />
        </mxCell>
        <mxCell id="SmEad3TpiuR0r6Jm9m0o-24" value="Angular" style="html=1;dropTarget=0;whiteSpace=wrap;" vertex="1" parent="1">
          <mxGeometry x="630" y="410" width="216" height="88.5" as="geometry" />
        </mxCell>
        <mxCell id="SmEad3TpiuR0r6Jm9m0o-25" value="" style="shape=module;jettyWidth=8;jettyHeight=4;" vertex="1" parent="SmEad3TpiuR0r6Jm9m0o-24">
          <mxGeometry x="1" width="20" height="20" relative="1" as="geometry">
            <mxPoint x="-27" y="7" as="offset" />
          </mxGeometry>
        </mxCell>
        <mxCell id="SmEad3TpiuR0r6Jm9m0o-27" value="&lt;span style=&quot;color: rgb(0, 0, 0); font-family: Verdana; font-size: 12px; font-style: normal; font-variant-ligatures: normal; font-variant-caps: normal; font-weight: 400; letter-spacing: normal; orphans: 2; text-align: center; text-indent: 0px; text-transform: none; widows: 2; word-spacing: 0px; -webkit-text-stroke-width: 0px; white-space: nowrap; background-color: rgb(251, 251, 251); text-decoration-thickness: initial; text-decoration-style: initial; text-decoration-color: initial; float: none; display: inline !important;&quot;&gt;&amp;lt;&amp;lt;Legacy-establecimientos&amp;gt;&amp;gt;&lt;/span&gt;" style="text;whiteSpace=wrap;html=1;" vertex="1" parent="1">
          <mxGeometry x="640" y="418.5" width="100" height="25" as="geometry" />
        </mxCell>
        <mxCell id="SmEad3TpiuR0r6Jm9m0o-28" value="Angular" style="html=1;dropTarget=0;whiteSpace=wrap;" vertex="1" parent="1">
          <mxGeometry x="850" y="408.5" width="216" height="88.5" as="geometry" />
        </mxCell>
        <mxCell id="SmEad3TpiuR0r6Jm9m0o-29" value="" style="shape=module;jettyWidth=8;jettyHeight=4;" vertex="1" parent="SmEad3TpiuR0r6Jm9m0o-28">
          <mxGeometry x="1" width="20" height="20" relative="1" as="geometry">
            <mxPoint x="-27" y="7" as="offset" />
          </mxGeometry>
        </mxCell>
        <mxCell id="SmEad3TpiuR0r6Jm9m0o-30" value="&lt;span style=&quot;color: rgb(0, 0, 0); font-family: Verdana; font-size: 12px; font-style: normal; font-variant-ligatures: normal; font-variant-caps: normal; font-weight: 400; letter-spacing: normal; orphans: 2; text-align: center; text-indent: 0px; text-transform: none; widows: 2; word-spacing: 0px; -webkit-text-stroke-width: 0px; white-space: nowrap; background-color: rgb(251, 251, 251); text-decoration-thickness: initial; text-decoration-style: initial; text-decoration-color: initial; float: none; display: inline !important;&quot;&gt;&amp;lt;&amp;lt;DigiizaciÃ³n documentos&amp;gt;&amp;gt;&lt;/span&gt;" style="text;whiteSpace=wrap;html=1;" vertex="1" parent="1">
          <mxGeometry x="860" y="418.5" width="100" height="25" as="geometry" />
        </mxCell>
        <mxCell id="SmEad3TpiuR0r6Jm9m0o-35" style="edgeStyle=orthogonalEdgeStyle;rounded=0;orthogonalLoop=1;jettySize=auto;html=1;entryX=0.5;entryY=0;entryDx=0;entryDy=0;" edge="1" parent="1" source="SmEad3TpiuR0r6Jm9m0o-31" target="SmEad3TpiuR0r6Jm9m0o-24">
          <mxGeometry relative="1" as="geometry" />
        </mxCell>
        <mxCell id="SmEad3TpiuR0r6Jm9m0o-37" style="edgeStyle=orthogonalEdgeStyle;rounded=0;orthogonalLoop=1;jettySize=auto;html=1;" edge="1" parent="1" source="SmEad3TpiuR0r6Jm9m0o-31">
          <mxGeometry relative="1" as="geometry">
            <mxPoint x="970" y="308.5" as="targetPoint" />
          </mxGeometry>
        </mxCell>
        <mxCell id="SmEad3TpiuR0r6Jm9m0o-31" value="" style="shape=providedRequiredInterface;html=1;verticalLabelPosition=bottom;sketch=0;rotation=90;" vertex="1" parent="1">
          <mxGeometry x="728" y="298.5" width="20" height="20" as="geometry" />
        </mxCell>
        <mxCell id="SmEad3TpiuR0r6Jm9m0o-32" value="" style="shape=providedRequiredInterface;html=1;verticalLabelPosition=bottom;sketch=0;rotation=90;" vertex="1" parent="1">
          <mxGeometry x="960" y="293.5" width="20" height="20" as="geometry" />
        </mxCell>
        <mxCell id="SmEad3TpiuR0r6Jm9m0o-34" style="edgeStyle=orthogonalEdgeStyle;rounded=0;orthogonalLoop=1;jettySize=auto;html=1;entryX=0.525;entryY=0.95;entryDx=0;entryDy=0;entryPerimeter=0;" edge="1" parent="1" source="SmEad3TpiuR0r6Jm9m0o-17" target="SmEad3TpiuR0r6Jm9m0o-31">
          <mxGeometry relative="1" as="geometry" />
        </mxCell>
        <mxCell id="SmEad3TpiuR0r6Jm9m0o-36" style="edgeStyle=orthogonalEdgeStyle;rounded=0;orthogonalLoop=1;jettySize=auto;html=1;entryX=0.556;entryY=-0.006;entryDx=0;entryDy=0;entryPerimeter=0;" edge="1" parent="1" source="SmEad3TpiuR0r6Jm9m0o-32" target="SmEad3TpiuR0r6Jm9m0o-28">
          <mxGeometry relative="1" as="geometry" />
        </mxCell>
        <mxCell id="SmEad3TpiuR0r6Jm9m0o-38" value="Angular" style="html=1;dropTarget=0;whiteSpace=wrap;" vertex="1" parent="1">
          <mxGeometry x="210" y="40" width="170" height="80" as="geometry" />
        </mxCell>
        <mxCell id="SmEad3TpiuR0r6Jm9m0o-39" value="" style="shape=module;jettyWidth=8;jettyHeight=4;" vertex="1" parent="SmEad3TpiuR0r6Jm9m0o-38">
          <mxGeometry x="1" width="20" height="20" relative="1" as="geometry">
            <mxPoint x="-27" y="7" as="offset" />
          </mxGeometry>
        </mxCell>
        <mxCell id="SmEad3TpiuR0r6Jm9m0o-40" value="Angular" style="html=1;dropTarget=0;whiteSpace=wrap;" vertex="1" parent="1">
          <mxGeometry x="535" y="40" width="170" height="80" as="geometry" />
        </mxCell>
        <mxCell id="SmEad3TpiuR0r6Jm9m0o-41" value="" style="shape=module;jettyWidth=8;jettyHeight=4;" vertex="1" parent="SmEad3TpiuR0r6Jm9m0o-40">
          <mxGeometry x="1" width="20" height="20" relative="1" as="geometry">
            <mxPoint x="-27" y="7" as="offset" />
          </mxGeometry>
        </mxCell>
        <mxCell id="SmEad3TpiuR0r6Jm9m0o-44" style="edgeStyle=orthogonalEdgeStyle;rounded=0;orthogonalLoop=1;jettySize=auto;html=1;" edge="1" parent="1" source="SmEad3TpiuR0r6Jm9m0o-42" target="SmEad3TpiuR0r6Jm9m0o-38">
          <mxGeometry relative="1" as="geometry" />
        </mxCell>
        <mxCell id="SmEad3TpiuR0r6Jm9m0o-42" value="" style="shape=providedRequiredInterface;html=1;verticalLabelPosition=bottom;sketch=0;rotation=90;" vertex="1" parent="1">
          <mxGeometry x="280" y="160" width="20" height="20" as="geometry" />
        </mxCell>
        <mxCell id="SmEad3TpiuR0r6Jm9m0o-45" style="edgeStyle=orthogonalEdgeStyle;rounded=0;orthogonalLoop=1;jettySize=auto;html=1;" edge="1" parent="1" source="SmEad3TpiuR0r6Jm9m0o-43" target="SmEad3TpiuR0r6Jm9m0o-40">
          <mxGeometry relative="1" as="geometry" />
        </mxCell>
        <mxCell id="SmEad3TpiuR0r6Jm9m0o-43" value="" style="shape=providedRequiredInterface;html=1;verticalLabelPosition=bottom;sketch=0;rotation=90;" vertex="1" parent="1">
          <mxGeometry x="603" y="160" width="20" height="20" as="geometry" />
        </mxCell>
        <mxCell id="SmEad3TpiuR0r6Jm9m0o-46" style="edgeStyle=orthogonalEdgeStyle;rounded=0;orthogonalLoop=1;jettySize=auto;html=1;entryX=1;entryY=0.5;entryDx=0;entryDy=0;entryPerimeter=0;" edge="1" parent="1" source="SmEad3TpiuR0r6Jm9m0o-4" target="SmEad3TpiuR0r6Jm9m0o-42">
          <mxGeometry relative="1" as="geometry">
            <Array as="points">
              <mxPoint x="310" y="190" />
              <mxPoint x="290" y="190" />
            </Array>
          </mxGeometry>
        </mxCell>
        <mxCell id="SmEad3TpiuR0r6Jm9m0o-53" value="React JS" style="html=1;dropTarget=0;whiteSpace=wrap;" vertex="1" parent="1">
          <mxGeometry x="-10" y="195.5" width="180" height="90" as="geometry" />
        </mxCell>
        <mxCell id="SmEad3TpiuR0r6Jm9m0o-54" value="" style="shape=module;jettyWidth=8;jettyHeight=4;" vertex="1" parent="SmEad3TpiuR0r6Jm9m0o-53">
          <mxGeometry x="1" width="20" height="20" relative="1" as="geometry">
            <mxPoint x="-27" y="7" as="offset" />
          </mxGeometry>
        </mxCell>
        <mxCell id="SmEad3TpiuR0r6Jm9m0o-55" value="&lt;span style=&quot;color: rgb(0, 0, 0); font-family: Verdana; font-size: 12px; font-style: normal; font-variant-ligatures: normal; font-variant-caps: normal; font-weight: 400; letter-spacing: normal; orphans: 2; text-align: center; text-indent: 0px; text-transform: none; widows: 2; word-spacing: 0px; -webkit-text-stroke-width: 0px; white-space: nowrap; background-color: rgb(251, 251, 251); text-decoration-thickness: initial; text-decoration-style: initial; text-decoration-color: initial; float: none; display: inline !important;&quot;&gt;&amp;lt;&amp;lt;&lt;span style=&quot;font-family: Helvetica; text-wrap-mode: wrap; background-color: rgb(236, 236, 236);&quot;&gt;ConsultaBancaria&lt;/span&gt;&amp;gt;&amp;gt;&lt;/span&gt;" style="text;whiteSpace=wrap;html=1;" vertex="1" parent="1">
          <mxGeometry x="222" y="46" width="100" height="25" as="geometry" />
        </mxCell>
        <mxCell id="SmEad3TpiuR0r6Jm9m0o-56" value="&lt;span style=&quot;color: rgb(0, 0, 0); font-family: Verdana; font-size: 12px; font-style: normal; font-variant-ligatures: normal; font-variant-caps: normal; font-weight: 400; letter-spacing: normal; orphans: 2; text-align: center; text-indent: 0px; text-transform: none; widows: 2; word-spacing: 0px; -webkit-text-stroke-width: 0px; white-space: nowrap; background-color: rgb(251, 251, 251); text-decoration-thickness: initial; text-decoration-style: initial; text-decoration-color: initial; float: none; display: inline !important;&quot;&gt;&amp;lt;&amp;lt;&lt;span style=&quot;font-family: Helvetica; text-wrap-mode: wrap; background-color: rgb(236, 236, 236);&quot;&gt;ngSatelites&lt;/span&gt;&amp;gt;&amp;gt;&lt;/span&gt;" style="text;whiteSpace=wrap;html=1;" vertex="1" parent="1">
          <mxGeometry x="550" y="46" width="100" height="25" as="geometry" />
        </mxCell>
        <mxCell id="SmEad3TpiuR0r6Jm9m0o-58" value="&lt;span style=&quot;color: rgb(0, 0, 0); font-family: Verdana; font-size: 12px; font-style: normal; font-variant-ligatures: normal; font-variant-caps: normal; font-weight: 400; letter-spacing: normal; orphans: 2; text-align: center; text-indent: 0px; text-transform: none; widows: 2; word-spacing: 0px; -webkit-text-stroke-width: 0px; white-space: nowrap; background-color: rgb(251, 251, 251); text-decoration-thickness: initial; text-decoration-style: initial; text-decoration-color: initial; float: none; display: inline !important;&quot;&gt;&amp;lt;&amp;lt;&lt;span style=&quot;font-family: Helvetica; text-wrap-mode: wrap; background-color: rgb(236, 236, 236);&quot;&gt;Doc-Viewer&lt;/span&gt;&amp;gt;&amp;gt;&lt;/span&gt;" style="text;whiteSpace=wrap;html=1;" vertex="1" parent="1">
          <mxGeometry y="195.5" width="120" height="25" as="geometry" />
        </mxCell>
      </root>
    </mxGraphModel>
  </diagram>
</mxfile>
